<svg width="75" height="75" viewBox="0 0 75 75" fill="none" xmlns="http://www.w3.org/2000/svg">
<path d="M2.67857 34.8214H5.35714V37.5H32.1429V34.8214H34.8214V32.1429H37.5V5.35714H34.8214V2.67857H32.1429V0H5.35714V2.67857H2.67857V5.35714H0V32.1429H2.67857V34.8214Z" fill="#F6416C"/>
<path d="M2.67857 72.3214H5.35714V75H32.1429V72.3214H34.8214V69.6429H37.5V42.8571H34.8214V40.1786H32.1429V37.5H5.35714V40.1786H2.67857V42.8571H0V69.6429H2.67857V72.3214Z" fill="#B0DB73"/>
<path d="M39.6786 34.8214H42.3571V37.5H69.1429V34.8214H71.8214V32.1429H74.5V5.35714H71.8214V2.67857H69.1429V0H42.3571V2.67857H39.6786V5.35714H37V32.1429H39.6786V34.8214Z" fill="#FFCD3D"/>
<path d="M39.6786 72.3214H42.3571V75H69.1429V72.3214H71.8214V69.6429H74.5V42.8571H71.8214V40.1786H69.1429V37.5H42.3571V40.1786H39.6786V42.8571H37V69.6429H39.6786V72.3214Z" fill="#00B8A9"/>
<path d="M9.75 25V23.2857H8V13H29V23.2857H27.25V25H9.75ZM25.5 23.2857V14.7143H11.5V23.2857H25.5Z" fill="white"/>
<path d="M25.5 54.5714V50.8571H8V49H29V56.4286H11.5V60.1429H29V62H9.75V60.1429H8V54.5714H25.5Z" fill="white"/>
<path d="M61.0471 47.9015L60.2762 49.9379L62.3126 50.7088L60 56.818L57.9636 56.0471L56.4218 60.1199L52.349 58.5781L53.8908 54.5053L51.8544 53.7345L54.167 47.6252L56.2034 48.3961L56.9743 46.3597L61.0471 47.9015ZM50.0364 64.6874L51.5782 60.6146L55.651 62.1563L54.1092 66.2291L50.0364 64.6874Z" fill="white"/>
<path d="M46.8333 16.4286V14.7143H48.6667V13H63.3333V14.7143H65.1667V16.4286H67V21.5714H65.1667V23.2857H63.3333V25H48.6667V23.2857H46.8333V21.5714H45V16.4286H46.8333ZM50.5 14.7143V16.4286H48.6667V21.5714H50.5V23.2857H61.5V21.5714H63.3333V16.4286H61.5V14.7143H50.5Z" fill="white"/>
</svg>
